<?xml version="1.0" encoding="UTF-8" standalone="no"?>
<!-- Created with Inkscape (http://www.inkscape.org/) -->

<svg
   version="1.1"
   id="svg18"
   width="519.0993"
   height="500.44757"
   viewBox="0 0 519.0993 500.44757"
   sodipodi:docname="logo.svg"
   inkscape:version="1.2.2 (732a01da63, 2022-12-09, custom)"
   xml:space="preserve"
   inkscape:export-filename="../91e58e92/logo.svg"
   inkscape:export-xdpi="96"
   inkscape:export-ydpi="96"
   xmlns:inkscape="http://www.inkscape.org/namespaces/inkscape"
   xmlns:sodipodi="http://sodipodi.sourceforge.net/DTD/sodipodi-0.dtd"
   xmlns="http://www.w3.org/2000/svg"
   xmlns:svg="http://www.w3.org/2000/svg"><defs
     id="defs22" /><sodipodi:namedview
     id="namedview20"
     pagecolor="#ffffff"
     bordercolor="#000000"
     borderopacity="0.25"
     inkscape:showpageshadow="2"
     inkscape:pageopacity="0.0"
     inkscape:pagecheckerboard="0"
     inkscape:deskcolor="#d1d1d1"
     showgrid="false"
     inkscape:zoom="1"
     inkscape:cx="342"
     inkscape:cy="497"
     inkscape:window-width="1920"
     inkscape:window-height="1001"
     inkscape:window-x="0"
     inkscape:window-y="0"
     inkscape:window-maximized="1"
     inkscape:current-layer="g24" /><g
     inkscape:groupmode="layer"
     inkscape:label="Image"
     id="g24"
     transform="translate(-294.18073,-218.81244)"><path
       style="fill:#cba671;fill-opacity:1;stroke:none;stroke-width:21;stroke-linecap:round;stroke-linejoin:round;stroke-dasharray:none;stroke-opacity:1"
       d="m 367.92042,394.8313 2.86197,223.47199 178.72306,91.95732 V 487.05538 Z"
       id="path637-5"
       sodipodi:nodetypes="ccccc"
       inkscape:export-filename="../f8f8cc68/favicon.png"
       inkscape:export-xdpi="96"
       inkscape:export-ydpi="96" /><path
       style="fill:#9f763d;fill-opacity:1;stroke:#000000;stroke-width:18;stroke-linecap:round;stroke-linejoin:round;stroke-dasharray:none;stroke-opacity:1"
       d="m 731.09048,394.8313 -2.86197,223.47199 -178.72306,91.95732 V 487.05538 Z"
       id="path637-3"
       sodipodi:nodetypes="ccccc" /><path
       style="fill:none;stroke:#000000;stroke-width:11.5;stroke-linecap:round;stroke-linejoin:round;stroke-dasharray:none;stroke-opacity:1"
       d="m 477.74165,610.64776 41.25913,21.39005"
       id="path2813"
       sodipodi:nodetypes="cc" /><path
       style="fill:none;stroke:#000000;stroke-width:11.5;stroke-linecap:round;stroke-linejoin:round;stroke-dasharray:none;stroke-opacity:1"
       d="m 476.66557,637.37113 41.25913,21.39005"
       id="path2813-6"
       sodipodi:nodetypes="cc" /><path
       style="fill:none;stroke:#000000;stroke-width:11.5;stroke-linecap:round;stroke-linejoin:round;stroke-dasharray:none;stroke-opacity:1"
       d="m 675.63951,583.31182 0.18414,27.9751"
       id="path2813-6-9"
       sodipodi:nodetypes="cc" /><path
       style="fill:none;stroke:#000000;stroke-width:11.5;stroke-linecap:round;stroke-linejoin:round;stroke-dasharray:none;stroke-opacity:1"
       d="m 698.79802,571.17266 0.18414,27.9751"
       id="path2813-6-9-1"
       sodipodi:nodetypes="cc" /><path
       style="fill:#000000;fill-opacity:1;stroke:#000000;stroke-width:18;stroke-linecap:round;stroke-linejoin:round;stroke-dasharray:none;stroke-opacity:1"
       d="m 367.92042,394.8313 180.67306,-93.86838 182.497,93.86838 -181.58503,92.22408 z"
       id="path2885" /><path
       style="fill:#9f753f;fill-opacity:1;stroke:none;stroke-width:21;stroke-linecap:round;stroke-linejoin:round;stroke-dasharray:none;stroke-opacity:1"
       d="m 484.51557,586.24228 20.30928,13.86434 43.43463,-74.67084 5.72779,-38.64009"
       id="path2883"
       sodipodi:nodetypes="cccc" /><path
       id="path16985"
       style="fill:#ffffff;fill-opacity:1;stroke-width:8"
       d="m 660.90665,437.38458 c 0,59.04993 -47.77218,52.82989 -106.82211,52.82989 -59.04994,0 -107.01665,6.22004 -107.01665,-52.82989 0,-59.04994 47.86944,-106.91938 106.91938,-106.91938 59.04994,0 106.91938,47.86944 106.91938,106.91938 z"
       sodipodi:nodetypes="sssss" /><path
       id="path15847-7"
       style="fill:#000000;fill-opacity:1;stroke:none;stroke-width:21.4437;stroke-linecap:round;stroke-linejoin:miter;stroke-dasharray:none;stroke-opacity:1"
       d="m 595.96927,362.59832 a 31.254632,31.254632 0 0 1 13.20292,3.86172 l -23.9346,19.24067 14.7894,18.3996 23.90661,-19.21819 a 31.254632,31.254632 0 0 1 -10.33776,33.26702 31.254632,31.254632 0 0 1 -34.68957,2.928 l -65.03552,52.28105 a 15.720407,15.720407 0 0 1 -17.11178,12.75652 15.720407,15.720407 0 0 1 -13.92951,-17.32774 15.720407,15.720407 0 0 1 16.42371,-13.96293 l 64.81377,-52.1028 a 31.254632,31.254632 0 0 1 10.36399,-33.29167 31.254632,31.254632 0 0 1 21.53834,-6.83125 z m -96.53591,98.9172 a 9.0225973,9.0225973 0 0 0 -9.94586,7.9953 9.0225973,9.0225973 0 0 0 7.99555,9.94391 9.0225973,9.0225973 0 0 0 9.94367,-7.99359 9.0225973,9.0225973 0 0 0 -7.99336,-9.94562 z" /><path
       style="fill:none;stroke:#000000;stroke-width:18;stroke-linecap:round;stroke-linejoin:round;stroke-dasharray:none;stroke-opacity:1"
       d="m 367.92042,394.8313 2.86197,223.47199 178.72306,91.95732 V 487.05538 Z"
       id="path637"
       sodipodi:nodetypes="ccccc" /><g
       id="g16024"
       transform="translate(-0.09725,-6.99595)"><path
         style="fill:#8e6938;fill-opacity:1;stroke:none;stroke-width:21;stroke-linecap:round;stroke-linejoin:round;stroke-dasharray:none;stroke-opacity:1"
         d="m 614.18261,591.7192 -19.69486,15.2269 -35.99719,-70.33452 -2.54146,-38.46576"
         id="path2883-0"
         sodipodi:nodetypes="cccc" /><path
         style="fill:#cba671;fill-opacity:1;stroke:#000000;stroke-width:18;stroke-linecap:round;stroke-linejoin:miter;stroke-dasharray:none;stroke-opacity:1"
         d="m 549.6027,494.05133 62.49419,89.1051 178.27434,-95.76867 -59.1835,-85.56051 z"
         id="path2784-6-6" /></g><path
       style="fill:#cba671;fill-opacity:1;stroke:#000000;stroke-width:18;stroke-linecap:round;stroke-linejoin:miter;stroke-dasharray:none;stroke-opacity:1"
       d="m 548.59348,300.96292 -55.04489,-70.80244 -185.36128,92.59619 57.90918,72.07462"
       id="path2854-3"
       sodipodi:nodetypes="cccc" /><path
       style="fill:#cba671;fill-opacity:1;stroke:#000000;stroke-width:18;stroke-linecap:round;stroke-linejoin:miter;stroke-dasharray:none;stroke-opacity:1"
       d="m 558.86727,300.96291 55.04489,-70.80244 185.3613,92.59619 -57.90918,72.07463"
       id="path2854"
       sodipodi:nodetypes="cccc" /><path
       style="fill:#cba671;fill-opacity:1;stroke:#000000;stroke-width:18;stroke-linecap:round;stroke-linejoin:miter;stroke-dasharray:none;stroke-opacity:1"
       d="m 549.50545,487.05538 -62.49419,89.10506 -178.27435,-95.76863 59.1835,-85.56051 z"
       id="path2784-6" /></g></svg>
